<svg width="22" height="22" viewBox="0 0 22 22" fill="none" xmlns="http://www.w3.org/2000/svg">
<rect opacity="0.2" width="22" height="22" rx="11" fill="white"/>
<path d="M10.9763 6.0498C11.6349 6.07333 12.317 6.07333 12.9756 6.09685C13.5637 6.12037 14.1047 6.21446 14.6221 6.52024C15.2807 6.92011 15.6806 7.50815 15.8217 8.26084C15.8923 8.70775 15.9158 9.17818 15.9394 9.6251C15.9629 10.613 15.9394 11.6009 15.9394 12.5888C15.9394 13.1063 15.9158 13.6238 15.7512 14.1177C15.4219 15.0821 14.7397 15.6702 13.7518 15.8583C13.3049 15.9524 12.8345 15.9524 12.3876 15.9759C11.3997 15.9995 10.4353 15.9759 9.44738 15.9759C8.9299 15.9759 8.41242 15.9524 7.91847 15.7878C6.95408 15.4585 6.36604 14.7763 6.17787 13.7884C6.08378 13.3415 6.08378 12.8711 6.06026 12.4242C6.03674 11.4363 6.06026 10.4484 6.06026 9.46044C6.06026 8.94297 6.08378 8.42549 6.24843 7.93154C6.57773 6.96715 7.25986 6.37911 8.24777 6.19093C8.69468 6.09685 9.16512 6.09685 9.61203 6.07333C10.0354 6.0498 10.5059 6.0498 10.9763 6.0498ZM15.0455 10.9188C15.022 10.9188 15.0455 10.9188 15.0455 10.9188C15.022 10.5189 15.022 10.1426 15.022 9.7427C15.022 9.36636 14.9985 8.99001 14.9514 8.61367C14.8574 7.76689 14.3634 7.20237 13.5401 7.03771C13.1168 6.94363 12.6463 6.94363 12.2229 6.94363C11.3762 6.92011 10.5529 6.92011 9.70611 6.94363C9.28272 6.94363 8.85933 6.96715 8.45947 7.03771C7.75382 7.15532 7.25986 7.55519 7.04817 8.26084C6.9776 8.49606 6.95408 8.73127 6.93056 8.96649C6.90704 9.86031 6.90704 10.7541 6.90704 11.648C6.90704 12.2125 6.93056 12.8005 6.9776 13.365C7.04817 14.2118 7.56564 14.7999 8.41242 14.941C8.83581 15.0116 9.28272 15.0351 9.72964 15.0351C10.5529 15.0586 11.3762 15.0351 12.2229 15.0351C12.5993 15.0351 12.9756 15.0116 13.352 14.9645C13.7048 14.941 14.0341 14.8234 14.3164 14.5882C14.7868 14.2118 14.9514 13.7179 14.975 13.1533C15.022 12.4477 15.022 11.6715 15.0455 10.9188Z" fill="white"/>
<path d="M13.5162 11.013C13.5162 12.4243 12.3872 13.5533 10.9759 13.5533C9.56459 13.5533 8.43555 12.4243 8.43555 10.9895C8.43555 9.6017 9.58811 8.47266 10.9994 8.47266C12.3872 8.47266 13.5162 9.6017 13.5162 11.013ZM10.9524 12.6595C11.8462 12.6595 12.5989 11.9068 12.5989 11.013C12.5989 10.1192 11.8462 9.36648 10.9524 9.36648C10.035 9.36648 9.30585 10.1192 9.30585 11.013C9.30585 11.9068 10.0585 12.6595 10.9524 12.6595Z" fill="white"/>
<path d="M14.1989 8.35464C14.1989 8.68395 13.9402 8.9662 13.6109 8.9662C13.2816 8.9662 12.9993 8.68395 13.0229 8.35464C13.0229 8.02534 13.2816 7.7666 13.6109 7.7666C13.9402 7.7666 14.1989 8.02534 14.1989 8.35464Z" fill="white"/>
</svg>
