<svg width="40" height="40" viewBox="0 0 40 40" fill="none" xmlns="http://www.w3.org/2000/svg">
<rect opacity="0.2" width="40" height="40" rx="20" fill="white"/>
<path d="M15.8984 16.4336V27H12.8418V16.4336H15.8984ZM12.6562 13.6992C12.6562 13.2565 12.8125 12.8952 13.125 12.6152C13.4375 12.3288 13.8477 12.1855 14.3555 12.1855C14.8633 12.1855 15.2734 12.3288 15.5859 12.6152C15.9049 12.8952 16.0645 13.2565 16.0645 13.6992C16.0645 14.1354 15.9049 14.4967 15.5859 14.7832C15.2734 15.0632 14.8633 15.2031 14.3555 15.2031C13.8477 15.2031 13.4375 15.0632 13.125 14.7832C12.8125 14.4967 12.6562 14.1354 12.6562 13.6992ZM21.084 18.6895V27H18.0273V16.4336H20.8984L21.084 18.6895ZM20.6836 21.3457L19.9219 21.3652C19.9219 20.571 20.0195 19.8581 20.2148 19.2266C20.4102 18.5951 20.6868 18.0579 21.0449 17.6152C21.4095 17.166 21.8424 16.8242 22.3438 16.5898C22.8516 16.3555 23.4115 16.2383 24.0234 16.2383C24.5182 16.2383 24.9707 16.3099 25.3809 16.4531C25.791 16.5964 26.1426 16.8275 26.4355 17.1465C26.735 17.459 26.9629 17.8757 27.1191 18.3965C27.2754 18.9108 27.3535 19.5456 27.3535 20.3008V27H24.2871V20.291C24.2871 19.8483 24.2253 19.5065 24.1016 19.2656C23.9779 19.0247 23.7956 18.8555 23.5547 18.7578C23.3203 18.6602 23.0339 18.6113 22.6953 18.6113C22.3372 18.6113 22.0312 18.6829 21.7773 18.8262C21.5234 18.9629 21.3151 19.1549 21.1523 19.4023C20.9896 19.6497 20.8691 19.9395 20.791 20.2715C20.7194 20.6035 20.6836 20.9616 20.6836 21.3457Z" fill="white"/>
</svg>
