<svg xmlns="http://www.w3.org/2000/svg" width="22" height="22" viewBox="0 0 22 22" fill="none">
<rect opacity="0.2" width="22" height="22" rx="11" fill="white"/>
<path d="M15.9498 7.12602C15.923 7.36763 15.8693 7.63609 15.8156 7.8777C15.3592 10.0253 14.9028 12.173 14.4465 14.3206C14.4196 14.4548 14.3928 14.5622 14.3391 14.6696C14.2317 14.8575 14.0706 14.9112 13.8559 14.8575C13.7216 14.8307 13.6142 14.777 13.5069 14.6965C12.8089 14.1864 12.1377 13.6763 11.4398 13.1663C11.3592 13.1126 11.3055 13.1126 11.225 13.1931C10.876 13.5153 10.5539 13.8642 10.2049 14.1864C10.0706 14.3206 9.93641 14.4012 9.74849 14.3743C9.61426 14.3743 9.53373 14.3206 9.50688 14.1864C9.29212 13.5153 9.07735 12.871 8.86259 12.1998C8.78205 11.9851 8.70152 11.7434 8.64783 11.5287C8.62098 11.4481 8.59413 11.3945 8.48675 11.3676C7.81561 11.1528 7.14448 10.9381 6.47334 10.7502C6.3928 10.7233 6.28542 10.6965 6.20488 10.6428C6.01696 10.5354 5.99012 10.3743 6.17804 10.2133C6.28542 10.1059 6.41965 10.0522 6.58072 9.99849C7.49347 9.6495 8.40622 9.30051 9.31896 8.95152C11.3055 8.19984 13.2653 7.42132 15.2518 6.66965C15.2787 6.66965 15.2787 6.66965 15.3055 6.6428C15.6813 6.50857 15.9498 6.69649 15.9498 7.12602ZM9.77534 13.7569C9.80218 13.73 9.80218 13.7032 9.80218 13.7032C9.85587 13.22 9.88272 12.7367 9.93641 12.2535C9.93641 12.1461 9.9901 12.0387 10.0706 11.9582C11.3592 10.8039 12.6478 9.6495 13.9364 8.49514C14.0169 8.41461 14.0975 8.36091 14.178 8.28038C14.2048 8.25353 14.2585 8.22669 14.2317 8.173C14.2048 8.1193 14.1512 8.1193 14.0975 8.1193C13.9901 8.1193 13.9095 8.173 13.829 8.22669C12.2451 9.21997 10.6612 10.2133 9.07735 11.2334C8.99682 11.2871 8.96997 11.3408 8.99682 11.4481C9.18474 12.0387 9.37265 12.6294 9.58742 13.22C9.64111 13.3542 9.6948 13.5421 9.77534 13.7569Z" fill="white"/>
</svg>